{"title":"The Fall  S02E04 x264 RB58.mp4","uid":11605992,"size":358299551,"categoryP":"video","categoryS":"tv_shows","magnet":"?xt=urn:btih:f42e28731ed2b3f2ccbd607882e1e18574572cb1&amp;dn=The+Fall++S02E04+x264+RB58.mp4&amp;tr=udp%3A%2F%2Ftracker.openbittorrent.com%3A80&amp;tr=udp%3A%2F%2Fopen.demonii.com%3A1337&amp;tr=udp%3A%2F%2Ftracker.coppersurfer.tk%3A6969&amp;tr=udp%3A%2F%2Fexodus.desync.com%3A6969","seeders":30,"leechers":0,"uploader":"RedBaron58","files":1,"time":1417401761,"description":"The Fall S02E04 - Crime Drama x264 mp4\n  &lt;a href=&quot;\nhttp://www.imdb.com/title/tt2294189/&quot; rel=&quot;nofollow&quot; target=&quot;_NEW&quot;&gt;\nhttp://www.imdb.com/title/tt2294189/&lt;/a&gt;\n\nTrailer\n\n\nThank you for your kind comments and thumbs ups on my other torrents, your feedback is welcome.\n\n\nAbout the Episode:\nGibson informs Burns that their confrontation in her hotel room may have been witnessed by Spector, \nand the detective is shocked to discover the serial killer has been paying visits to one of \nhis surviving victims in hospital. \nSeizing on the opportunity, she finally locates Spector and puts him under surveillance, \nbut her success is short-lived as she is forced to face her worst fears.\n\nStarring Gillian Anderson and Jamie Dornan.\n\nI hope you enjoy.\n\n\nTechnical:\n\nGeneral\nComplete name                            : H:The Fall  S02E04 x264 RB58.mp4\nFormat                                   : MPEG-4\nFormat profile                           : Base Media\nCodec ID                                 : isom\nFile size                                : 342 MiB\nDuration                                 : 58mn 11s\nOverall bit rate                         : 821 Kbps\nWriting application                      : Lavf54.63.104\n\nVideo\nID                                       : 1\nFormat                                   : AVC\nFormat/Info                              : Advanced Video Codec\nFormat profile                           : &lt;a class=&quot;__cf_email__&quot; href=&quot;/cdn-cgi/l/email-protection&quot; data-cfemail=&quot;e2aa8b858aa2aed1ccd3&quot;&gt;[email&amp;#160;protected]&lt;/a&gt;&lt;script cf-hash='f9e31' type=&quot;text/javascript&quot;&gt;\n/* &lt;![CDATA[ */!function(){try{var t=&quot;currentScript&quot;in document?document.currentScript:function(){for(var t=document.getElementsByTagName(&quot;script&quot;),e=t.length;e--;)if(t[e].getAttribute(&quot;cf-hash&quot;))return t[e]}();if(t&amp;&amp;t.previousSibling){var e,r,n,i,c=t.previousSibling,a=c.getAttribute(&quot;data-cfemail&quot;);if(a){for(e=&quot;&quot;,r=parseInt(a.substr(0,2),16),n=2;a.length-n;n+=2)i=parseInt(a.substr(n,2),16)^r,e+=String.fromCharCode(i);e=document.createTextNode(e),c.parentNode.replaceChild(e,c)}}}catch(u){}}();/* ]]&gt; */&lt;/script&gt;\nFormat settings, CABAC                   : Yes\nFormat settings, ReFrames                : 4 frames\nCodec ID                                 : avc1\nCodec ID/Info                            : Advanced Video Coding\nDuration                                 : 58mn 11s\nBit rate                                 : 697 Kbps\nNominal bit rate                         : 1 400 Kbps\nWidth                                    : 832 pixels\nHeight                                   : 468 pixels\nDisplay aspect ratio                     : 16:9\nFrame rate mode                          : Variable\nFrame rate                               : 25.000 fps\nOriginal frame rate                      : 50.000 fps\nMinimum frame rate                       : 12.500 fps\nMaximum frame rate                       : 50.000 fps\nColor space                              : YUV\nChroma subsampling                       : 4:2:0\nBit depth                                : 8 bits\nScan type                                : Progressive\nBits/(Pixel*Frame)                       : 0.072\nStream size                              : 290 MiB (85%)\nWriting library                          : x264 core 123 r2189 35cf912\nEncoding settings                        : cabac=1 / ref=3 / deblock=1:0:0\n\nAudio\nID                                       : 2\nFormat                                   : AAC\nFormat/Info                              : Advanced Audio Codec\nFormat profile                           : LC\nCodec ID                                 : 40\nDuration                                 : 58mn 11s\nBit rate mode                            : Constant\nBit rate                                 : 115 Kbps\nChannel(s)                               : 2 channels\nChannel positions                        : Front: L R\nSampling rate                            : 48.0 KHz\nCompression mode                         : Lossy\nStream size                              : 47.9 MiB (14%)","torrent":{"xt":"urn:btih:f42e28731ed2b3f2ccbd607882e1e18574572cb1","amp;dn":"The+Fall++S02E04+x264+RB58.mp4","amp;tr":["udp%3A%2F%2Ftracker.openbittorrent.com%3A80","udp%3A%2F%2Fopen.demonii.com%3A1337","udp%3A%2F%2Ftracker.coppersurfer.tk%3A6969","udp%3A%2F%2Fexodus.desync.com%3A6969"],"infoHash":"f42e28731ed2b3f2ccbd607882e1e18574572cb1","infoHashBuffer":{"type":"Buffer","data":[244,46,40,115,30,210,179,242,204,189,96,120,130,225,225,133,116,87,44,177]},"announce":[],"urlList":[]}}